HIERARCHY
ROOT Hip
{
	OFFSET	0.0000	0.0000	0.0000
	CHANNELS 6 Xposition Yposition Zposition Xrotation Yrotation Zrotation
	JOINT LowerSpine
	{
		OFFSET	0.0000	9.9249	-5.3708
		CHANNELS 3 Xrotation Yrotation Zrotation
		JOINT MiddleSpine
		{
			OFFSET	0.0000	9.0573	0.4731
			CHANNELS 3 Xrotation Yrotation Zrotation
			JOINT Chest
			{
				OFFSET	0.0000	11.2073	-2.4946
				CHANNELS 3 Xrotation Yrotation Zrotation
				JOINT Neck
				{
					OFFSET	0.0000	25.2552	-0.5252
					CHANNELS 3 Xrotation Yrotation Zrotation
					JOINT Head
					{
						OFFSET	0.0000	14.2619	3.8792
						CHANNELS 3 Xrotation Yrotation Zrotation
						End Site
						{
							OFFSET	0.0001	19.9276	0.5949
						}
					}
				}
				JOINT LClavicle
				{
					OFFSET	2.5497	24.3726	8.3502
					CHANNELS 3 Xrotation Yrotation Zrotation
					JOINT LShoulder
					{
						OFFSET	14.8959	3.4959	-5.6567
						CHANNELS 3 Xrotation Yrotation Zrotation
						JOINT LForearm
						{
							OFFSET	31.6418	-0.1124	-0.2742
							CHANNELS 3 Xrotation Yrotation Zrotation
							JOINT LHand
							{
								OFFSET	26.3959	0.0766	-0.1581
								CHANNELS 3 Xrotation Yrotation Zrotation
								JOINT LFinger1
								{
									OFFSET	10.2303	0.8947	2.8414
									CHANNELS 3 Xrotation Yrotation Zrotation
									JOINT LFinger11
									{
										OFFSET	3.8267	-0.9331	0.6743
										CHANNELS 3 Xrotation Yrotation Zrotation
										JOINT LFinger12
										{
											OFFSET	2.6124	-0.6373	0.4605
											CHANNELS 3 Xrotation Yrotation Zrotation
											End Site
											{
												OFFSET	1.8589	-0.5549	0.3015
											}
										}
									}
								}
								JOINT LFinger2
								{
									OFFSET	10.3830	1.0332	0.2474
									CHANNELS 3 Xrotation Yrotation Zrotation
									JOINT LFinger21
									{
										OFFSET	4.7314	0.0132	-0.0279
										CHANNELS 3 Xrotation Yrotation Zrotation
										JOINT LFinger22
										{
											OFFSET	2.6225	0.0080	-0.0160
											CHANNELS 3 Xrotation Yrotation Zrotation
											End Site
											{
												OFFSET	2.3556	-0.1663	0.0032
											}
										}
									}
								}
								JOINT LFinger3
								{
									OFFSET	9.8400	0.6894	-2.3279
									CHANNELS 3 Xrotation Yrotation Zrotation
									JOINT LFinger31
									{
										OFFSET	4.2933	-0.2174	-0.2688
										CHANNELS 3 Xrotation Yrotation Zrotation
										JOINT LFinger32
										{
											OFFSET	2.4465	-0.1231	-0.1537
											CHANNELS 3 Xrotation Yrotation Zrotation
											End Site
											{
												OFFSET	2.1632	-0.2660	-0.1022
											}
										}
									}
								}
								JOINT LFinger4
								{
									OFFSET	9.1311	-0.6940	-4.0204
									CHANNELS 3 Xrotation Yrotation Zrotation
									JOINT LFinger41
									{
										OFFSET	2.6408	-0.5507	-0.7290
										CHANNELS 3 Xrotation Yrotation Zrotation
										JOINT LFinger42
										{
											OFFSET	1.9365	-0.4033	-0.5349
											CHANNELS 3 Xrotation Yrotation Zrotation
											End Site
											{
												OFFSET	1.7188	-0.4723	-0.3943
											}
										}
									}
								}
								JOINT LFinger0
								{
									OFFSET	2.1162	-1.6018	1.6043
									CHANNELS 3 Xrotation Yrotation Zrotation
									JOINT LFinger01
									{
										OFFSET	3.9401	-1.2941	2.9707
										CHANNELS 3 Xrotation Yrotation Zrotation
										JOINT LFinger02
										{
											OFFSET	2.5946	-0.9284	1.8693
											CHANNELS 3 Xrotation Yrotation Zrotation
											End Site
											{
												OFFSET	1.9079	-0.6568	1.3065
											}
										}
									}
								}
							}
						}
					}
				}
				JOINT RClavicle
				{
					OFFSET	-2.5497	24.3726	8.3502
					CHANNELS 3 Xrotation Yrotation Zrotation
					JOINT RShoulder
					{
						OFFSET	-14.8985	3.4965	-5.6577
						CHANNELS 3 Xrotation Yrotation Zrotation
						JOINT RForearm
						{
							OFFSET	-31.6418	-0.1124	-0.2742
							CHANNELS 3 Xrotation Yrotation Zrotation
							JOINT RHand
							{
								OFFSET	-26.3959	0.0766	-0.1581
								CHANNELS 3 Xrotation Yrotation Zrotation
								JOINT RFinger1
								{
									OFFSET	-10.2303	0.8947	2.8414
									CHANNELS 3 Xrotation Yrotation Zrotation
									JOINT RFinger11
									{
										OFFSET	-3.8267	-0.9331	0.6743
										CHANNELS 3 Xrotation Yrotation Zrotation
										JOINT RFinger12
										{
											OFFSET	-2.6124	-0.6373	0.4605
											CHANNELS 3 Xrotation Yrotation Zrotation
											End Site
											{
												OFFSET	-1.8589	-0.5549	0.3015
											}
										}
									}
								}
								JOINT RFinger2
								{
									OFFSET	-10.3830	1.0332	0.2474
									CHANNELS 3 Xrotation Yrotation Zrotation
									JOINT RFinger21
									{
										OFFSET	-4.7314	0.0132	-0.0279
										CHANNELS 3 Xrotation Yrotation Zrotation
										JOINT RFinger22
										{
											OFFSET	-2.6225	0.0080	-0.0160
											CHANNELS 3 Xrotation Yrotation Zrotation
											End Site
											{
												OFFSET	-2.3556	-0.1663	0.0032
											}
										}
									}
								}
								JOINT RFinger3
								{
									OFFSET	-9.8400	0.6894	-2.3279
									CHANNELS 3 Xrotation Yrotation Zrotation
									JOINT RFinger31
									{
										OFFSET	-4.2933	-0.2174	-0.2688
										CHANNELS 3 Xrotation Yrotation Zrotation
										JOINT RFinger32
										{
											OFFSET	-2.4465	-0.1231	-0.1537
											CHANNELS 3 Xrotation Yrotation Zrotation
											End Site
											{
												OFFSET	-2.1632	-0.2660	-0.1022
											}
										}
									}
								}
								JOINT RFinger4
								{
									OFFSET	-9.1311	-0.6940	-4.0204
									CHANNELS 3 Xrotation Yrotation Zrotation
									JOINT RFinger41
									{
										OFFSET	-2.6408	-0.5507	-0.7290
										CHANNELS 3 Xrotation Yrotation Zrotation
										JOINT RFinger42
										{
											OFFSET	-1.9365	-0.4033	-0.5349
											CHANNELS 3 Xrotation Yrotation Zrotation
											End Site
											{
												OFFSET	-1.7188	-0.4723	-0.3943
											}
										}
									}
								}
								JOINT RFinger0
								{
									OFFSET	-2.1162	-1.6018	1.6043
									CHANNELS 3 Xrotation Yrotation Zrotation
									JOINT RFinger01
									{
										OFFSET	-3.9401	-1.2941	2.9707
										CHANNELS 3 Xrotation Yrotation Zrotation
										JOINT RFinger02
										{
											OFFSET	-2.5946	-0.9284	1.8693
											CHANNELS 3 Xrotation Yrotation Zrotation
											End Site
											{
												OFFSET	-1.9079	-0.6568	1.3065
											}
										}
									}
								}
							}
						}
					}
				}
			}
		}
	}
	JOINT RThigh
	{
		OFFSET	-10.6172	4.4864	-0.8752
		CHANNELS 3 Xrotation Yrotation Zrotation
		JOINT RShin
		{
			OFFSET	-0.8496	-46.1801	0.0000
			CHANNELS 3 Xrotation Yrotation Zrotation
			JOINT RFoot
			{
				OFFSET	0.0000	-45.3460	0.0000
				CHANNELS 3 Xrotation Yrotation Zrotation
				JOINT RToe
				{
					OFFSET	0.0000	-4.9839	10.4221
					CHANNELS 3 Xrotation Yrotation Zrotation
					End Site
					{
						OFFSET	0.0000	0.0000	6.9918
					}
				}
			}
		}
	}
	JOINT LThigh
	{
		OFFSET	10.6171	4.4867	-0.8752
		CHANNELS 3 Xrotation Yrotation Zrotation
		JOINT LShin
		{
			OFFSET	0.8496	-46.1804	0.0000
			CHANNELS 3 Xrotation Yrotation Zrotation
			JOINT LFoot
			{
				OFFSET	0.0000	-45.3460	0.0000
				CHANNELS 3 Xrotation Yrotation Zrotation
				JOINT LToe
				{
					OFFSET	0.0000	-4.9840	10.4221
					CHANNELS 3 Xrotation Yrotation Zrotation
					End Site
					{
						OFFSET	0.0000	0.0000	6.9917
					}
				}
			}
		}
	}
}
MOTION
Frames:	6
Frame Time: 0.0333333000
	-0.4661	98.1124	2.7813	-5.156483	-0.000006	-4.870667	0.000000	0.000000	0.000000	2.307831	-2.573268	1.115354	7.893869	-8.392055	4.144790	0.000000	0.000000	0.000000	0.000000	0.000000	0.000000	0.000000	0.000000	-15.185480	13.599060	-19.255110	-59.646740	-3.036048	-31.728720	-0.022493	0.000000	0.000000	0.000000	0.000000	0.000000	0.000000	0.000000	0.000000	0.000000	0.000000	0.000000	0.000000	0.000000	0.000000	0.000000	0.000000	0.000000	0.000000	0.000000	0.000000	0.000000	0.000000	0.000000	0.000000	0.000000	0.000000	0.000000	0.000000	0.000000	0.000000	0.000000	0.000000	0.000000	0.000000	0.000000	0.000000	0.000000	0.000000	0.000000	0.000000	0.000000	0.000000	0.000000	0.000000	0.000000	0.000000	0.000000	0.000000	0.000000	0.000000	14.704580	13.464260	18.829400	57.266240	-2.654136	34.798740	0.026573	0.000000	0.000000	0.000000	0.000000	0.000000	0.000000	0.000000	0.000000	0.000000	0.000000	0.000000	0.000000	0.000000	0.000000	0.000000	0.000000	0.000000	0.000000	0.000000	0.000000	0.000000	0.000000	0.000000	0.000000	0.000000	0.000000	0.000000	0.000000	0.000000	0.000000	0.000000	0.000000	0.000000	0.000000	0.000000	0.000000	0.000000	0.000000	0.000000	0.000000	0.000000	0.000000	0.000000	0.000000	0.000000	0.000000	0.000000	0.000000	4.415299	-3.544090	3.955222	9.809756	-3.165535	0.782109	-0.409768	-0.705250	-0.340337	0.000000	0.000000	0.000000	-1.291896	0.098929	6.747530	19.161760	0.447965	-0.123446	-1.395435	-0.774243	-0.377104	0.000000	0.000000	0.000000
	-0.4456	98.0805	2.6812	-5.106853	-0.750961	-4.667576	0.000000	0.000000	0.000000	2.351182	-2.386256	1.046716	7.990174	-7.780654	3.892467	0.000000	0.000000	0.000000	0.000000	0.000000	0.000000	0.000000	0.000000	-15.163270	13.636860	-19.181970	-59.613430	-3.029624	-32.213100	-0.016524	0.000000	0.000000	0.000000	0.000000	0.000000	0.000000	0.000000	0.000000	0.000000	0.000000	0.000000	0.000000	0.000000	0.000000	0.000000	0.000000	0.000000	0.000000	0.000000	0.000000	0.000000	0.000000	0.000000	0.000000	0.000000	0.000000	0.000000	0.000000	0.000000	0.000000	0.000000	0.000000	0.000000	0.000000	0.000000	0.000000	0.000000	0.000000	0.000000	0.000000	0.000000	0.000000	0.000000	0.000000	0.000000	0.000000	0.000000	0.000000	0.000000	0.000000	14.665570	13.766330	18.315700	57.330260	-2.664930	35.980280	0.031369	0.000000	0.000000	0.000000	0.000000	0.000000	0.000000	0.000000	0.000000	0.000000	0.000000	0.000000	0.000000	0.000000	0.000000	0.000000	0.000000	0.000000	0.000000	0.000000	0.000000	0.000000	0.000000	0.000000	0.000000	0.000000	0.000000	0.000000	0.000000	0.000000	0.000000	0.000000	0.000000	0.000000	0.000000	0.000000	0.000000	0.000000	0.000000	0.000000	0.000000	0.000000	0.000000	0.000000	0.000000	0.000000	0.000000	0.000000	0.000000	4.214157	-4.827275	3.509881	10.250470	-4.197011	1.102523	-0.540375	-0.902897	-0.437024	0.000000	0.000000	0.000000	-1.144198	0.159600	6.578028	18.817480	0.452797	-0.130983	-1.555353	-1.469067	-0.727518	0.000000	0.000000	0.000000
	-0.4350	98.0568	2.6291	-5.074890	-1.034952	-4.599813	0.000000	0.000000	0.000000	2.373184	-2.316921	1.023428	8.050154	-7.544516	3.802984	0.000000	0.000000	0.000000	0.000000	0.000000	0.000000	0.000000	0.000000	-15.165170	13.577250	-19.192660	-59.616000	-3.079202	-32.303230	-0.016303	0.000000	0.000000	0.000000	0.000000	0.000000	0.000000	0.000000	0.000000	0.000000	0.000000	0.000000	0.000000	0.000000	0.000000	0.000000	0.000000	0.000000	0.000000	0.000000	0.000000	0.000000	0.000000	0.000000	0.000000	0.000000	0.000000	0.000000	0.000000	0.000000	0.000000	0.000000	0.000000	0.000000	0.000000	0.000000	0.000000	0.000000	0.000000	0.000000	0.000000	0.000000	0.000000	0.000000	0.000000	0.000000	0.000000	0.000000	0.000000	0.000000	0.000000	14.651740	13.871120	18.123640	57.354400	-2.676143	36.398690	0.030596	0.000000	0.000000	0.000000	0.000000	0.000000	0.000000	0.000000	0.000000	0.000000	0.000000	0.000000	0.000000	0.000000	0.000000	0.000000	0.000000	0.000000	0.000000	0.000000	0.000000	0.000000	0.000000	0.000000	0.000000	0.000000	0.000000	0.000000	0.000000	0.000000	0.000000	0.000000	0.000000	0.000000	0.000000	0.000000	0.000000	0.000000	0.000000	0.000000	0.000000	0.000000	0.000000	0.000000	0.000000	0.000000	0.000000	0.000000	0.000000	4.102057	-5.179245	3.384478	10.404590	-4.479028	1.165814	-0.619958	-0.926968	-0.449480	0.000000	0.000000	0.000000	-1.108106	0.182713	6.529796	18.749050	0.458340	-0.129781	-1.620163	-1.724600	-0.854934	0.000000	0.000000	0.000000
	-0.4229	98.0476	2.5782	-5.036300	-1.184771	-4.567837	0.000000	0.000000	0.000000	2.382391	-2.294748	1.016480	8.097486	-7.434221	3.762804	0.000000	0.000000	0.000000	0.000000	0.000000	0.000000	0.000000	0.000000	-15.163720	13.538510	-19.223470	-59.593660	-3.091195	-32.361880	-0.016282	0.000000	0.000000	0.000000	0.000000	0.000000	0.000000	0.000000	0.000000	0.000000	0.000000	0.000000	0.000000	0.000000	0.000000	0.000000	0.000000	0.000000	0.000000	0.000000	0.000000	0.000000	0.000000	0.000000	0.000000	0.000000	0.000000	0.000000	0.000000	0.000000	0.000000	0.000000	0.000000	0.000000	0.000000	0.000000	0.000000	0.000000	0.000000	0.000000	0.000000	0.000000	0.000000	0.000000	0.000000	0.000000	0.000000	0.000000	0.000000	0.000000	0.000000	14.651060	13.843360	18.099820	57.363030	-2.714123	36.472830	0.030565	0.000000	0.000000	0.000000	0.000000	0.000000	0.000000	0.000000	0.000000	0.000000	0.000000	0.000000	0.000000	0.000000	0.000000	0.000000	0.000000	0.000000	0.000000	0.000000	0.000000	0.000000	0.000000	0.000000	0.000000	0.000000	0.000000	0.000000	0.000000	0.000000	0.000000	0.000000	0.000000	0.000000	0.000000	0.000000	0.000000	0.000000	0.000000	0.000000	0.000000	0.000000	0.000000	0.000000	0.000000	0.000000	0.000000	0.000000	0.000000	3.990037	-5.213907	3.356973	10.449440	-4.507951	1.115781	-0.682683	-0.876755	-0.425714	0.000000	0.000000	0.000000	-1.147637	0.185607	6.497491	18.736760	0.451025	-0.153728	-1.693398	-1.785780	-0.886685	0.000000	0.000000	0.000000
	-0.4074	98.0384	2.5235	-4.997738	-1.342655	-4.534151	0.000000	0.000000	0.000000	2.403265	-2.251560	1.002455	8.157266	-7.322741	3.721288	0.000000	0.000000	0.000000	0.000000	0.000000	0.000000	0.000000	0.000000	-15.162770	13.501820	-19.361160	-59.520680	-3.028129	-32.321800	-0.016657	0.000000	0.000000	0.000000	0.000000	0.000000	0.000000	0.000000	0.000000	0.000000	0.000000	0.000000	0.000000	0.000000	0.000000	0.000000	0.000000	0.000000	0.000000	0.000000	0.000000	0.000000	0.000000	0.000000	0.000000	0.000000	0.000000	0.000000	0.000000	0.000000	0.000000	0.000000	0.000000	0.000000	0.000000	0.000000	0.000000	0.000000	0.000000	0.000000	0.000000	0.000000	0.000000	0.000000	0.000000	0.000000	0.000000	0.000000	0.000000	0.000000	0.000000	14.649700	13.811290	18.075690	57.372440	-2.759980	36.536050	0.030414	0.000000	0.000000	0.000000	0.000000	0.000000	0.000000	0.000000	0.000000	0.000000	0.000000	0.000000	0.000000	0.000000	0.000000	0.000000	0.000000	0.000000	0.000000	0.000000	0.000000	0.000000	0.000000	0.000000	0.000000	0.000000	0.000000	0.000000	0.000000	0.000000	0.000000	0.000000	0.000000	0.000000	0.000000	0.000000	0.000000	0.000000	0.000000	0.000000	0.000000	0.000000	0.000000	0.000000	0.000000	0.000000	0.000000	0.000000	0.000000	3.874870	-5.237191	3.316210	10.490550	-4.524737	1.087676	-0.742928	-0.860349	-0.418311	0.000000	0.000000	0.000000	-1.191074	0.187019	6.464997	18.710730	0.444645	-0.154153	-1.757485	-1.820095	-0.904999	0.000000	0.000000	0.000000
	-0.3929	98.0313	2.4752	-4.971833	-1.493717	-4.501620	0.000000	0.000000	0.000000	2.424568	-2.214102	0.989734	8.227559	-7.211108	3.678854	0.000000	0.000000	0.000000	0.000000	0.000000	0.000000	0.000000	0.000000	-15.161850	13.463950	-19.530800	-59.430260	-2.943784	-32.244410	-0.017258	0.000000	0.000000	0.000000	0.000000	0.000000	0.000000	0.000000	0.000000	0.000000	0.000000	0.000000	0.000000	0.000000	0.000000	0.000000	0.000000	0.000000	0.000000	0.000000	0.000000	0.000000	0.000000	0.000000	0.000000	0.000000	0.000000	0.000000	0.000000	0.000000	0.000000	0.000000	0.000000	0.000000	0.000000	0.000000	0.000000	0.000000	0.000000	0.000000	0.000000	0.000000	0.000000	0.000000	0.000000	0.000000	0.000000	0.000000	0.000000	0.000000	0.000000	14.647380	13.780940	18.048930	57.386440	-2.806294	36.597260	0.030266	0.000000	0.000000	0.000000	0.000000	0.000000	0.000000	0.000000	0.000000	0.000000	0.000000	0.000000	0.000000	0.000000	0.000000	0.000000	0.000000	0.000000	0.000000	0.000000	0.000000	0.000000	0.000000	0.000000	0.000000	0.000000	0.000000	0.000000	0.000000	0.000000	0.000000	0.000000	0.000000	0.000000	0.000000	0.000000	0.000000	0.000000	0.000000	0.000000	0.000000	0.000000	0.000000	0.000000	0.000000	0.000000	0.000000	0.000000	0.000000	3.780996	-5.247742	3.266074	10.521140	-4.527704	1.087379	-0.807864	-0.855978	-0.416785	0.000000	0.000000	0.000000	-1.182433	0.196851	6.434710	18.668310	0.435095	-0.180102	-1.779295	-1.834353	-0.912520	0.000000	0.000000	0.000000
